<svg xmlns="http://www.w3.org/2000/svg" viewBox="0 0 24 24"><path fill="#646FDE" d="M11.319 9.242h1.673v5.805h-1.673zM4.226 13.355c0-2.005-2.547-1.644-2.547-2.403l.001.002c0-.262.218-.364.567-.368a3.7 3.7 0 0 1 1.658.432V9.434a4.4 4.4 0 0 0-1.654-.307C.9 9.127 0 9.839 0 11.029c0 1.864 2.532 1.561 2.532 2.365 0 .31-.266.413-.638.413-.551 0-1.264-.231-1.823-.538v1.516a4.591 4.591 0 0 0 1.819.382c1.384-.001 2.336-.6 2.336-1.812zM11.314 8.732l1.673-.36V7l-1.673.36zM16.468 9.129a1.86 1.86 0 0 0-1.305.527l-.086-.417H13.61V17l1.665-.357.004-1.902c.24.178.596.425 1.178.425 1.193 0 2.28-.879 2.28-3.016.004-1.956-1.098-3.021-2.269-3.021zm-.397 4.641c-.391.001-.622-.143-.784-.318l-.011-2.501c.173-.193.413-.334.795-.334.607 0 1.027.69 1.027 1.569.005.906-.408 1.584-1.027 1.584zm5.521-4.641c-1.583 0-2.547 1.36-2.547 3.074 0 2.027 1.136 2.964 2.757 2.964.795 0 1.391-.182 1.845-.436v-1.266c-.454.231-.975.371-1.635.371-.649 0-1.219-.231-1.294-1.019h3.259c.007-.087.022-.44.022-.602H24c0-1.725-.825-3.086-2.408-3.086zm-.889 2.448c0-.758.462-1.076.878-1.076.409 0 .844.319.844 1.076h-1.722zm-13.251-.902V9.242H6.188l-.004-1.459-1.625.349-.007 5.396c0 .997.743 1.641 1.729 1.641.548 0 .949-.103 1.171-.224v-1.281c-.214.087-1.264.398-1.264-.595v-2.395h1.264zm3.465.114V9.243c-.225-.08-1.001-.227-1.391.496l-.102-.496h-1.44v5.805h1.662v-3.907c.394-.523 1.058-.42 1.271-.352z"/></svg>