<svg width="19" height="18" viewBox="0 0 19 18" fill="none" xmlns="http://www.w3.org/2000/svg">
<path d="M13.3642 0H5.60537C2.97052 0 0.826904 2.14372 0.826904 4.77857V12.5373C0.826904 15.1723 2.97052 17.3159 5.60537 17.3159H13.3642C15.9992 17.3159 18.1428 15.1722 18.1428 12.5373V4.77857C18.1429 2.14372 15.9992 0 13.3642 0ZM16.6066 12.5373C16.6066 14.3251 15.1521 15.7796 13.3643 15.7796H5.60537C3.81767 15.7797 2.36326 14.3251 2.36326 12.5373V4.77857C2.36326 2.99087 3.81767 1.53635 5.60537 1.53635H13.3642C15.152 1.53635 16.6065 2.99087 16.6065 4.77857V12.5373H16.6066Z" fill="#EF7A1E"/>
<path d="M9.48482 4.19629C7.02451 4.19629 5.02295 6.19785 5.02295 8.65816C5.02295 11.1184 7.02451 13.1198 9.48482 13.1198C11.9451 13.1198 13.9467 11.1184 13.9467 8.65816C13.9467 6.19785 11.9451 4.19629 9.48482 4.19629ZM9.48482 11.5834C7.87176 11.5834 6.5593 10.2711 6.5593 8.65806C6.5593 7.04489 7.87165 5.73254 9.48482 5.73254C11.098 5.73254 12.4103 7.04489 12.4103 8.65806C12.4103 10.2711 11.0979 11.5834 9.48482 11.5834Z" fill="#EF7A1E"/>
<path d="M14.1337 2.89355C13.8377 2.89355 13.547 3.01339 13.3379 3.22336C13.1278 3.4323 13.0071 3.72318 13.0071 4.02021C13.0071 4.31632 13.1279 4.6071 13.3379 4.81707C13.5469 5.02601 13.8377 5.14687 14.1337 5.14687C14.4308 5.14687 14.7206 5.02601 14.9306 4.81707C15.1406 4.6071 15.2604 4.31622 15.2604 4.02021C15.2604 3.72318 15.1406 3.4323 14.9306 3.22336C14.7216 3.01339 14.4308 2.89355 14.1337 2.89355Z" fill="#EF7A1E"/>
</svg>
