<svg width="18" height="12" viewBox="0 0 18 12" fill="none" xmlns="http://www.w3.org/2000/svg">
<path d="M7.67252 5.07784C7.67252 5.07784 9.311 4.95619 9.311 3.0343C9.311 1.11259 7.97039 0.175049 6.27209 0.175049H3.14623H3.05441H0.684082V10.914H3.05441H3.14623H6.27209C6.27209 10.914 9.68334 11.0219 9.68334 7.74441C9.68352 7.74441 9.83228 5.07784 7.67252 5.07784ZM3.14623 2.08393H5.86992H6.27227C6.27227 2.08393 7.03195 2.08393 7.03195 3.20113C7.03195 4.31833 6.58496 4.48028 6.07851 4.48028H3.14623V2.08393ZM6.12803 9.00567H3.14623V6.13557H6.27209C6.27209 6.13557 7.40429 6.12112 7.40429 7.61048C7.40429 8.8524 6.57629 8.9932 6.12803 9.00567Z" fill="#EF7A1E"/>
<path d="M16.354 0.807861H11.9231V2.13039H16.354V0.807861Z" fill="#EF7A1E"/>
<path d="M14.2331 2.90747C10.1033 2.90747 10.1069 7.03322 10.1069 7.03322C10.1069 7.03322 9.82388 11.1386 14.2332 11.1386C14.2332 11.1386 17.908 11.3486 17.908 8.28255H16.0181C16.0181 8.28255 16.0812 9.43771 14.2963 9.43771C14.2963 9.43771 12.4066 9.56406 12.4066 7.56878H17.9709C17.9709 7.56878 18.5797 2.90747 14.2331 2.90747ZM15.9129 6.13545H12.3853C12.3853 6.13545 12.6161 4.48016 14.275 4.48016C15.9341 4.47998 15.9129 6.13545 15.9129 6.13545Z" fill="#EF7A1E"/>
</svg>
