<svg width="25" height="25" viewBox="0 0 25 25" fill="none" xmlns="http://www.w3.org/2000/svg">
<rect width="25" height="25" rx="12.5" fill="#EF7A1E"/>
<path d="M8.27929 13.2225H10.1774V21.0367C10.1774 21.191 10.3024 21.316 10.4567 21.316H13.675C13.8293 21.316 13.9543 21.191 13.9543 21.0367V13.2593H16.1363C16.2782 13.2593 16.3976 13.1529 16.4138 13.0119L16.7452 10.1351C16.7543 10.056 16.7292 9.97671 16.6763 9.91733C16.6233 9.8579 16.5474 9.82388 16.4678 9.82388H13.9544V8.02056C13.9544 7.47694 14.2471 7.20128 14.8245 7.20128C14.9067 7.20128 16.4678 7.20128 16.4678 7.20128C16.6221 7.20128 16.7471 7.07622 16.7471 6.92199V4.28136C16.7471 4.12708 16.6221 4.00207 16.4678 4.00207H14.203C14.1871 4.00128 14.1516 4 14.0993 4C13.7064 4 12.3405 4.07714 11.2615 5.06974C10.066 6.1697 10.2322 7.48672 10.2719 7.71507V9.82382H8.27929C8.12501 9.82382 8 9.94883 8 10.1031V12.9432C8 13.0974 8.12501 13.2225 8.27929 13.2225Z" fill="white"/>
</svg>
