<svg width="18" height="18" viewBox="0 0 18 18" fill="none" xmlns="http://www.w3.org/2000/svg">
<path d="M13.0688 1.16241C11.7424 0.388235 10.2936 0.0012207 8.72295 0.0012207C7.15205 0.0012207 5.70338 0.388235 4.37693 1.16241C3.05049 1.93662 2.00016 2.98695 1.22613 4.31321C0.451956 5.63981 0.0649414 7.08848 0.0649414 8.65923C0.0649414 10.4104 0.541982 11.9999 1.4966 13.4277C2.45104 14.8559 3.70229 15.9117 5.25068 16.5955C5.22048 15.7913 5.26936 15.1263 5.39724 14.6003L6.51326 9.88796C6.32534 9.51979 6.23146 9.0614 6.23146 8.51263C6.23146 7.87384 6.39303 7.34008 6.71618 6.91189C7.03915 6.48335 7.43385 6.26906 7.89989 6.26906C8.27554 6.26906 8.56502 6.39294 8.76798 6.64125C8.9709 6.88917 9.07247 7.20117 9.07247 7.57685C9.07247 7.80997 9.02909 8.09378 8.94289 8.42808C8.85633 8.76256 8.74361 9.14954 8.60473 9.58927C8.46567 10.0288 8.36613 10.3801 8.30592 10.6433C8.20052 11.1016 8.28708 11.4943 8.5652 11.8213C8.84312 12.1483 9.2115 12.3116 9.67004 12.3116C10.4743 12.3116 11.1337 11.8646 11.6486 10.9702C12.1634 10.0758 12.4208 8.98982 12.4208 7.71202C12.4208 6.7276 12.1034 5.92702 11.4683 5.31077C10.8331 4.69467 9.94801 4.38635 8.81337 4.38635C7.54307 4.38635 6.51526 4.79423 5.73008 5.6094C4.94472 6.42496 4.55202 7.40024 4.55202 8.53473C4.55202 9.2112 4.7438 9.7788 5.12695 10.2372C5.25468 10.3876 5.29603 10.549 5.251 10.7217C5.23582 10.7669 5.20583 10.8796 5.1608 11.0599C5.1158 11.2401 5.0856 11.3569 5.07059 11.4093C5.01038 11.65 4.86767 11.7252 4.64205 11.6348C4.06329 11.3943 3.62357 10.9773 3.32311 10.3835C3.02247 9.78992 2.87223 9.1023 2.87223 8.32062C2.87223 7.81706 2.95293 7.31347 3.1145 6.80991C3.27608 6.30635 3.52768 5.8198 3.86987 5.34987C4.21168 4.88052 4.62139 4.46498 5.09879 4.10431C5.57601 3.74345 6.15662 3.45436 6.84059 3.23604C7.52441 3.01828 8.2611 2.90924 9.05026 2.90924C10.1174 2.90924 11.0757 3.14601 11.9249 3.61937C12.7741 4.09295 13.4225 4.70558 13.8697 5.45706C14.3167 6.20858 14.5405 7.01259 14.5405 7.86968C14.5405 8.99703 14.3449 10.0117 13.9543 10.9136C13.5634 11.8156 13.011 12.5238 12.2969 13.0386C11.5827 13.5533 10.771 13.8108 9.86181 13.8108C9.40328 13.8108 8.97488 13.7037 8.57656 13.4894C8.17801 13.2752 7.90374 13.0216 7.7535 12.7284C7.41534 14.0585 7.21242 14.8518 7.14473 15.107C7.00181 15.6408 6.70868 16.2569 6.2653 16.9559C7.0695 17.1964 7.88871 17.3165 8.72295 17.3165C10.2937 17.3165 11.7424 16.9295 13.0688 16.1555C14.3952 15.3813 15.4455 14.331 16.2198 13.0044C16.9938 11.6779 17.381 10.2294 17.381 8.65848C17.381 7.08758 16.9938 5.63912 16.2198 4.31249C15.4457 2.98695 14.3952 1.93662 13.0688 1.16241Z" fill="#EF7A1E"/>
</svg>
